<?xml version="1.0" encoding="UTF-8"?>
<svg xmlns="http://www.w3.org/2000/svg" width="1366" height="1024" viewBox="0 0 1366 1024">
  <g id="Turn-to-blue">
    <g>
      <path d="M897.59,1084.63v105.66l-4.98,6.21-8.43,10.53-10.43,13.02-23.9,29.85-34.6-29.06-36.4-30.57-28.51,30.51-27.21,29.12-29.42-31.87-25.62-27.75v-105.66c0-75.6,51.37-136.88,114.75-136.88s114.75,61.28,114.75,136.88Z" fill="#324da1" stroke="#000" stroke-miterlimit="10" stroke-width="2.79"/>
      <path id="blinky-shine" d="M697.27,1016.72c-1.54-.83,2.3-19.32,17.02-32.81,13.63-12.5,34.5-18.79,38.89-13.37,2.68,3.31-.23,11.67-5.47,15.8-6.52,5.13-13.05.89-22.48,3.04-18.64,4.24-26.15,28.32-27.95,27.35Z" fill="#767cbc"/>
      <path d="M886.76,1135.04c.32-5.92.63-5.2,1.65-18.57.82-10.78,1.64-21.56,1.65-31.78.01-18.4-2.62-32.89-3.71-38.39-4.24-21.22-13.59-47.85-18.99-47.05-2.21.33-3.64,5.23-3.71,8.67-.13,6.19,4.05,10.89,4.95,11.97,10.47,12.45,13.24,51.02,13.21,68.11-.05,30.34-9,28.15-9.08,63.15,0,3.36.08,21.85,6.6,44.17.04.12.09.31.17.56,5.27-7.49,7.78-15.13,9.23-21.02-1.24-13.8-2.76-25.16-1.97-39.8Z" fill="#293689"/>
      <circle cx="739.85" cy="1053.92" r="34.52" fill="#ddbab1"/>
    </g>
    <g>
      <path id="blinky-body" d="M897.59,1084.63v162.4l-46.37-52.46-2.88-3.26-22.91,20.47-39.46,35.26-3.13,2.89-3.13-2.89-39.46-35.26-22.9-20.47-2.88,3.26-46.37,52.46v-162.4c0-75.6,51.37-136.88,114.75-136.88s114.75,61.28,114.75,136.88Z" fill="#324da1" stroke="#000" stroke-miterlimit="10" stroke-width="2.79"/>
      <circle cx="819.91" cy="1056.15" r="34.52" fill="#ddbab1"/>
      <path id="blinky-shine-2" data-name="blinky-shine" d="M697.27,1016.71c-1.54-.83,2.3-19.32,17.02-32.81,13.63-12.5,34.5-18.79,38.89-13.37,2.68,3.31-.23,11.67-5.47,15.8-6.52,5.13-13.05.89-22.48,3.04-18.64,4.24-26.15,28.32-27.95,27.35Z" fill="#767cbc"/>
      <path id="blinky-shade3" d="M891.18,1221.02c1.43-.27,1.6-5.48,1.65-10.28.32-31.5-4.6-46.66-3.3-70.62.32-5.92.63-5.2,1.65-18.57.82-10.78,1.64-21.56,1.65-31.78.01-18.4-2.62-32.89-3.71-38.39-4.24-21.22-13.59-47.85-18.99-47.05-2.21.33-3.64,5.23-3.71,8.67-.13,6.19,4.05,10.89,4.95,11.97,10.47,12.45,13.24,51.02,13.21,68.11-.05,30.34-9,28.15-9.08,63.15,0,3.36.08,21.85,6.6,44.17.57,1.96,6.25,21.16,9.08,20.64Z" fill="#293689"/>
    </g>
  </g>
  <g id="Pac-Man">
    <path id="small-lower-jaw" d="M1283.66,514.85c0,86.98-70.51,157.5-157.5,157.5-69.52,0-128.52-45.04-149.41-107.53l149.41-49.96" fill="#ffe600"/>
    <path id="small-upper-jaw" d="M1126.16,514.85l-149.41-49.97c20.89-62.49,79.89-107.53,149.41-107.53,86.99,0,157.5,70.51,157.5,157.5" fill="#ffe600"/>
    <path d="M1283.66,514.85c0,86.98-70.51,157.5-157.5,157.5-51.68,0-97.27-24.51-125.99-62.97l1.35-1.08,124.64-96.29-120.21-98.92c28.89-34.09,72.02-55.73,120.21-55.73,86.99,0,157.5,70.51,157.5,157.5" fill="#ffe600"/>
    <path d="M1090.02,371.45c-2.09-1.61-5.09-.79-9.7.72-9.79,3.2-14.68,4.8-18.28,6.86-16.98,9.71-46.89,31.34-45.24,33.75.6.88,5.09-1.27,10.77-3.98,14.79-7.07,15.59-11.35,26.68-16.52,13.35-6.22,24.55-7.81,24.55-7.81,5.39-.77,10.63-.9,12.6-4.49,1.47-2.67.88-6.78-1.38-8.52Z" fill="#fef084"/>
    <path d="M1240.34,598.47c-1.86-3.02-7.96-2.34-8.53-2.27-15.48,1.89-15.12,25.64-35.81,42.64-15.92,13.07-34.06,13.75-33.54,15.92.43,1.79,12.85,1.75,25.01-2.27,16.01-5.3,25.21-15.41,38.09-29.56,7.58-8.33,17.79-19.55,14.78-24.44Z" fill="#c5a02e"/>
  </g>
  <g id="Super-Pac-Man">
    <path id="super-lower-jaw" d="M-413.88,332.37c0,229.96,186.42,416.38,416.38,416.38,183.79,0,339.76-119.07,394.99-284.29L2.51,332.37" fill="#fbb040"/>
    <path id="super-upper-jaw" d="M6.06,332.4l403.24-104.21C365.75,59.53,218.47-70.15,35.12-82.97c-229.41-16.05-428.38,156.9-444.43,386.31" fill="#fbb040"/>
    <path d="M-413.88,332.38c0,229.96,186.42,416.38,416.38,416.38,136.64,0,257.15-64.81,333.07-166.47l-3.58-2.87L2.48,324.84,320.3,63.32C243.92-26.8,129.89-84.01,2.51-84.01c-229.97,0-416.38,186.42-416.38,416.38Z" fill="#ffe600"/>
    <path d="M98.03-46.74c5.52-4.25,13.44-2.1,25.63,1.89,25.88,8.47,38.82,12.7,48.32,18.14,44.89,25.67,123.97,82.86,119.61,89.22-1.59,2.32-13.47-3.36-28.47-10.53-39.11-18.69-41.21-30.01-70.53-43.67C157.32-8.12,127.71-12.33,127.71-12.33c-14.24-2.02-28.09-2.38-33.32-11.88-3.9-7.07-2.32-17.94,3.64-22.53Z" fill="#fef084"/>
  </g>
</svg>